<svg xmlns="http://www.w3.org/2000/svg" viewBox="0 0 204.5 202.74"><defs><style>.cls-1{fill:#8bd6b2;}</style></defs><title>verde</title><g id="Layer_2" data-name="Layer 2"><g id="Layer_1-2" data-name="Layer 1"><path class="cls-1" d="M203.89,117.07c-2.86-16.14-15.11-28.53-29.23-35.84-18.37-9.52-40.5-10.77-56.1-25.57-9.54-9.05-14-27-4.53-37.66,5.61-6.3,15.34-10,23.64-8,7.89,1.86,13.54,8.54,15.51,16.22a20.21,20.21,0,0,1,.14,9.66c-1.66,7-4.73,11.7-6.8,15.47-1.94,3.52,3.76,12.31,6.43,7.45a79.72,79.72,0,0,0,8.11-19.86c2.84-12.82,1.15-26.58-10.31-34.58-15.19-10.6-36.31-.07-44.94,14.14a37.4,37.4,0,0,0,3.43,42.76C124,78.6,147.79,79.68,167,89.2c14.93,7.42,28.89,20.83,29.29,38.55.37,16.89-12,30.56-28.35,33.37a49.79,49.79,0,0,1-15.79,0,.25.25,0,0,1-.19-.35A41.3,41.3,0,0,0,155.86,144c.08-13.66-9.31-29.8-24.47-29.58-12.86.18-23.69,12.63-22.18,25.36,1.71,14.46,16.83,24.58,30.16,28.83a.25.25,0,0,1,.12.39c-.75,1-1.52,2-2.31,3a104.45,104.45,0,0,1-23.85,21.19.26.26,0,0,1-.24,0,234.34,234.34,0,0,1-29-14.37c-19.63-11.19-38.59-24.74-53.37-42C14.18,117.56,4.77,93.58,9.56,68.09c3.94-20.95,18.6-36.16,37.65-44.62a110.85,110.85,0,0,1,21-6.94,90.49,90.49,0,0,1,15.16-2.07c4-.19,8.53-9.64,3-9.38A98.8,98.8,0,0,0,66,8.31a114,114,0,0,0-21.75,8.18c-26,13-43,37.09-44.16,66.46-2.3,56.47,54,94.85,99.61,115.8,3.73,1.71,8.91,5.51,12.94,3.33,8.43-4.57,16.34-11.9,23-18.69a99.27,99.27,0,0,0,10.8-12.91.24.24,0,0,1,.24-.1c15.12,2.63,31.17-1.12,42.55-11.76,11.06-10.34,17.38-26.47,14.7-41.55m-56.31,32.2A30.13,30.13,0,0,1,145,159.6c-10.09-3-19.32-8.9-24.7-17.57-2.83-4.56-5-11.7-.13-15.71,4.5-3.74,11.44-3,16.11-.07,7.44,4.66,11.78,14.39,11.29,23"/></g></g></svg>