<svg width="79" height="43" viewBox="0 0 79 43" fill="none" xmlns="http://www.w3.org/2000/svg">
<path d="M4.13581 17.9527L33.622 20.572V34.0612L4.13581 34.5697V17.9527ZM12.369 24.2272V20.1882L10.3298 20.0443V24.1314L12.369 24.2272ZM15.0304 24.3521V20.3898L13.1156 20.2554V24.2273L15.0304 24.3521V24.3521ZM17.577 24.4672V20.5433L15.5952 20.3898V24.3617L17.577 24.4672V24.4672ZM20.0277 24.5822V20.7448L18.113 20.6104V24.5247L20.0277 24.5823V24.5822ZM22.4115 24.6878V20.8502L20.6117 20.7255V24.563L22.4115 24.6878ZM24.8144 24.7934V21.0421L22.8997 20.9079V24.7454L24.8144 24.7934ZM27.0641 24.8702V21.1957L25.1495 21.0614V24.8127L27.0641 24.8702V24.8702ZM29.2374 24.966V21.3491L27.4375 21.2244V24.9179L29.2374 24.966ZM31.3147 25.0621V21.4835L29.5149 21.3491V24.9948L31.3147 25.0621V25.0621ZM9.66922 24.1027V19.9964L7.40024 19.8429V23.9971L9.66922 24.1027ZM27.4279 29.6001V33.332H29.2277V29.6959L27.4279 29.6001ZM25.159 29.6001V33.3608H27.0737V29.6768L25.159 29.6001ZM22.8422 29.6001V33.4376H24.7569V29.6671L22.8422 29.6001ZM20.5733 33.4376H22.373V29.6001H20.5733V33.4376ZM18.1226 33.4376H20.0374V29.6001H18.1226V33.4376ZM15.576 29.6001V33.4856H17.5673V29.648L15.576 29.6001ZM13.0772 33.5144H14.9921V29.6001H13.0772V33.5144ZM10.3488 29.6001V33.5527H12.3689V29.5808L10.3488 29.6001ZM7.39076 29.6001V33.5912H9.65961V29.5616L7.39076 29.6001ZM29.4958 33.4376H31.3243V29.7057H29.5149L29.4958 33.4376H29.4958ZM29.4958 29.2546H31.2956V25.6567L29.4958 25.5897V29.2546ZM27.4183 25.5416V29.2258H29.2182V25.5802L27.4183 25.5416ZM25.1494 25.4553V29.197H27.0641V25.4937L25.1494 25.4553ZM22.8326 25.369V29.2066H24.7474V25.4073L22.8326 25.369ZM20.5638 29.1203H22.3636V25.2828H20.5638V29.1203ZM18.113 29.0245H20.0276V25.1868H18.113V29.0245ZM15.5951 25.0428V29.0245H17.5864V25.1196L15.5951 25.0428ZM13.0964 24.9468V29.0245H15.0111V25.0236L13.0964 24.9468ZM10.368 24.8415V28.9668L12.3689 29.0245V24.918L10.368 24.8415ZM7.40981 24.7261V28.9284H9.67867V24.8127L7.40981 24.7261ZM57.6704 19.0466H62.4571V28.7366H61.8061V22.8937H61.6243V28.7366H61.0019V22.8937H60.8105V28.7366H60.5807V27.5758H60.1691V21.8193H59.9872V27.5758H59.566V28.7366H59.3362V22.8937H59.1544V28.7366H58.5034V22.8937H58.3214V28.7366H57.6705V19.0466H57.6704ZM59.7478 27.7772H60.3988V28.7366H59.7478V27.7772ZM34.9717 18.4709H57.4789V28.9285H62.6581V18.4709H74.1461V34.0614H34.8951L34.9717 18.4709ZM63.29 33.7064H68.0766V29.7152H63.29V33.7064ZM52.0795 33.7064H56.8662V29.7152H52.0795V33.7064ZM46.5939 33.7064H51.3806V29.7152H46.5939V33.7064ZM41.1084 33.7064H45.895V29.7152H41.1084V33.7064ZM35.6227 33.7064H40.4093V29.7152H35.6227V33.7064ZM68.7851 33.7064H73.5718V29.7152H68.7851V33.7064ZM62.6676 29.6193H57.4789V33.8214H62.658L62.6676 29.6193ZM40.5627 19.8909H38.3033V24.1123H40.5242L40.5627 19.8909ZM40.5627 24.6592H38.3033V28.8806H40.5627V24.6592ZM43.2911 19.8909H41.0317V24.1123H43.2527L43.2911 19.8909ZM43.2911 24.6592H41.0317V28.8806H43.2911V24.6592ZM46.0196 19.8909H43.7602V24.1123H45.9811L46.0196 19.8909ZM46.0196 24.6592H43.7602V28.8806H46.0196V24.6592ZM48.748 19.8909H46.4886V24.1123H48.748V19.8909ZM48.748 24.6592H46.4886V28.8806H48.748V24.6592ZM51.4764 19.8909H49.217V24.1123H51.4381L51.4764 19.8909ZM51.4764 24.6592H49.217V28.8806H51.4764V24.6592ZM54.2048 19.8909H51.9455V24.1123H54.1665L54.2048 19.8909ZM54.2048 24.6592H51.9455V28.8806H54.2048V24.6592ZM57.0768 19.8909H54.6739V24.1123H57.029L57.0768 19.8909ZM57.0768 24.6592H54.6739V28.8806H57.0768V24.6592ZM65.31 19.8909H63.0506V24.1123H65.2717L65.31 19.8909ZM65.31 24.6592H63.0506V28.8806H65.31V24.6592ZM68.0384 19.8909H65.7792V24.1123H68.0001L68.0384 19.8909ZM68.0384 24.6592H65.7791V28.8806H68.0384V24.6592ZM70.767 19.8909H68.5076V24.1123H70.767V19.8909ZM70.767 24.6592H68.5076V28.8806H70.767V24.6592ZM73.6389 19.8909H71.236V24.1123H73.6389V19.8909ZM73.6389 24.6592H71.236V28.8806H73.6389V24.6592ZM35.527 28.8997H37.7959V24.6783H35.527V28.8997ZM35.527 24.1028H37.7959V19.8814H35.527V24.1028ZM62.505 33.6871H57.7182V29.8496H62.505V33.6871ZM43.9134 15.9285V18.3175H37.5854V15.919L43.9134 15.9285ZM44.0952 18.3175V16.0437L44.5548 16.4659V18.3078L44.0952 18.3175ZM37.0779 15.7654V18.3175H34.7899V20.8695H33.8326V20.3898L32.5592 20.2746V15.7559L37.078 15.7654L37.0779 15.7654ZM34.8089 33.6583H33.8517V21.0422H34.8089V33.6583ZM37.2598 18.3078V15.8135L37.4225 15.8901V18.3079H37.2598V18.3078ZM78.3586 30.4539H77.1524V33.1883H78.3586V30.4539ZM77.1524 23.1912V29.9071H78.3586V23.383L77.1524 23.1912ZM74.376 21.733L79 22.6155V33.7446H74.376V21.733ZM3.08263 20.3898V24.1122L3.35061 23.9684V20.1308L3.08263 20.3898ZM2.671 20.7448V24.3424L2.92949 24.1986V20.4953L2.671 20.7448ZM0.65099 22.4429V25.4266L0.813777 25.3403V22.3086L0.65099 22.4429ZM0.325455 25.609L0.488242 25.5227V22.558L0.325455 22.7018V25.609ZM3.0922 24.9566V28.938H3.36018V24.784L3.0922 24.9566ZM2.67096 25.1867V29.0245H2.92945V25.0141L2.67096 25.1867ZM0.650949 26.2997V29.4082H0.813737V26.1461L0.650949 26.2997ZM0.325415 29.4658H0.488202V26.338L0.325415 26.4245V29.4658ZM0.488202 33.3033V30.1372H0.325415V33.2458L0.488202 33.3033ZM0.813737 33.3033V30.0797H0.650949V33.2363L0.813737 33.3033ZM2.91985 33.4186V29.696H2.66136V33.3321L2.91985 33.4186ZM3.35057 33.4186V29.5809H3.08259V33.3226L3.35057 33.4186ZM3.95381 17.9433V34.5602L2.36452 34.282V29.6959L0.957272 29.9839V34.0708L0 33.9076V21.781L0.957272 20.879V29.389L2.35495 29.1396V19.5455L3.95385 17.9433L3.95381 17.9433ZM1.14876 20.8215H2.17307V29.0245L1.14876 29.2066V20.8215V20.8215ZM2.17307 34.2532L1.14876 34.0709V30.1085L2.17307 29.9264V34.2533V34.2532Z" fill="white"/>
<path d="M14.3734 41.2911V41.2816C14.3734 40.3415 15.0746 39.563 16.0505 39.563C16.6522 39.563 17.0122 39.7766 17.3437 40.0899L17.0879 40.3654C16.8085 40.0995 16.4957 39.9096 16.0457 39.9096C15.3113 39.9096 14.7619 40.5078 14.7619 41.2721V41.2816C14.7619 42.0506 15.3162 42.6536 16.0457 42.6536C16.5005 42.6536 16.7989 42.4779 17.1165 42.174L17.3627 42.4164C17.017 42.7676 16.6379 43.0001 16.0363 43.0001C15.0792 43.0001 14.3735 42.2453 14.3735 41.2911L14.3734 41.2911Z" fill="white"/>
<path d="M19.2486 38.7273H19.5895L20.1107 39.2876H19.7695L19.4142 39.0027L19.059 39.2876H18.7273L19.2485 38.7273H19.2486ZM20.1675 41.7278L19.4142 40.033L18.6563 41.7278H20.1675ZM19.2438 39.5962H19.5943L21.1055 42.9431H20.7029L20.3143 42.0648H18.5094L18.1163 42.9431H17.7326L19.2438 39.5962Z" fill="white"/>
<path d="M21.7596 39.6199H22.1387L23.3467 41.4333L24.5546 39.6199H24.9335V42.9432H24.5594V40.2512L23.3514 42.0317H23.3324L22.1244 40.2561V42.9432H21.7596V39.6199Z" fill="white"/>
<path d="M28.0228 41.7279L27.2696 40.033L26.5116 41.7279H28.0228ZM27.0991 39.5962H27.4497L28.9607 42.9433H28.5581L28.1697 42.0649H26.3648L25.9714 42.9433H25.5877L27.0991 39.5962Z" fill="white"/>
<path d="M31.0076 41.3148C31.505 41.3148 31.8603 41.0584 31.8603 40.631V40.6215C31.8603 40.2134 31.5477 39.9665 31.0123 39.9665H29.9891V41.3148H31.0076ZM29.615 39.6199H31.0408C31.4482 39.6199 31.7751 39.7433 31.9836 39.9522C32.1445 40.1135 32.2394 40.3462 32.2394 40.6075V40.617C32.2394 41.1676 31.8603 41.4905 31.3392 41.5853L32.3578 42.9432H31.8983L30.9365 41.6519H29.9891V42.9432H29.615V39.6199Z" fill="white"/>
<path d="M35.1909 41.7279L34.4378 40.033L33.6797 41.7279H35.1909ZM34.2673 39.5962H34.6178L36.1289 42.9433H35.7263L35.3378 42.0649H33.533L33.1396 42.9433H32.7559L34.2673 39.5962Z" fill="white"/>
<path d="M38.2044 39.6199H38.5834L39.7914 41.4333L40.9994 39.6199H41.3783V42.9432H41.0042V40.2512L39.7961 42.0317H39.7772L38.5691 40.2561V42.9432H38.2044V39.6199Z" fill="white"/>
<path d="M42.2647 41.5522V39.6199H42.6389V41.5284C42.6389 42.2453 43.0178 42.6489 43.6527 42.6489C44.2639 42.6489 44.6523 42.2785 44.6523 41.5522V39.6199H45.0265V41.5237C45.0265 42.4922 44.4722 42.9955 43.6433 42.9955C42.8236 42.9955 42.2646 42.4922 42.2646 41.5522H42.2647Z" fill="white"/>
<path d="M45.9127 39.6199H46.2633L48.3524 42.2832V39.6199H48.7172V42.9432H48.4188L46.2775 40.218V42.9432H45.9127V39.6199Z" fill="white"/>
<path d="M49.6887 39.6199H50.063V42.9432H49.6887V39.6199Z" fill="white"/>
<path d="M50.8873 41.2911V41.2816C50.8873 40.3415 51.5884 39.563 52.5644 39.563C53.1661 39.563 53.5261 39.7766 53.8575 40.0899L53.6018 40.3654C53.3224 40.0995 53.0096 39.9096 52.5596 39.9096C51.8252 39.9096 51.2758 40.5078 51.2758 41.2721V41.2816C51.2758 42.0506 51.8301 42.6536 52.5596 42.6536C53.0145 42.6536 53.3128 42.4779 53.6304 42.174L53.8766 42.4164C53.5308 42.7676 53.1519 43.0001 52.5502 43.0001C51.5932 43.0001 50.8874 42.2453 50.8874 41.2911L50.8873 41.2911Z" fill="white"/>
<path d="M54.5638 39.6199H54.938V42.9432H54.5638V39.6199Z" fill="white"/>
<path d="M57.1031 41.4287C57.6526 41.4287 58.0126 41.1344 58.0126 40.6975V40.688C58.0126 40.2134 57.6574 39.9663 57.122 39.9663H56.2834V41.4287H57.1031H57.1031ZM55.9093 39.6199H57.1505C57.8989 39.6199 58.3917 40.0186 58.3917 40.6738V40.6833C58.3917 41.4003 57.7947 41.7705 57.0889 41.7705H56.2835V42.9432H55.9093V39.6199H55.9093Z" fill="white"/>
<path d="M60.8932 41.7279L60.1401 40.033L59.382 41.7279H60.8932ZM59.9695 39.5962H60.3201L61.8312 42.9433H61.4286L61.0403 42.0649H59.2353L58.8419 42.9433H58.4583L59.9695 39.5962Z" fill="white"/>
<path d="M62.4854 39.6199H62.8597V42.5964H64.7261V42.9432H62.4854V39.6199Z" fill="white"/>
<path d="M13.731 8.3808L14.8873 5.41651L16.0569 8.3808H13.731ZM15.8149 2.64087H14.0806L9.96637 12.1804H12.279L13.0721 10.1592H16.7696L17.5896 12.1804H19.9559L15.8149 2.64087Z" fill="white"/>
<path d="M17.7242 0H14.9813L13.6235 1.94037H15.3982L17.7242 0Z" fill="white"/>
<path d="M29.5285 6.52124H25.8043V8.45367H29.5285V6.52124Z" fill="white"/>
<path d="M27.5119 10.0112C27.3146 10.1189 27.0501 10.2246 26.7186 10.3278C26.3869 10.4311 25.9926 10.4826 25.5354 10.4826C25.0872 10.4826 24.6816 10.4065 24.3186 10.2536C23.9556 10.1012 23.6442 9.88777 23.3843 9.61364C23.1243 9.33979 22.9249 9.01636 22.7859 8.64351C22.6468 8.27091 22.5776 7.86007 22.5776 7.41069C22.5776 6.97081 22.6468 6.56194 22.7859 6.18456C22.9249 5.80722 23.1243 5.4817 23.3843 5.20773C23.6442 4.93388 23.9556 4.72048 24.3186 4.56774C24.6816 4.41511 25.0872 4.33869 25.5354 4.33869C26.0733 4.33869 26.5214 4.41511 26.88 4.56774C27.2384 4.72048 27.5611 4.94508 27.848 5.24139L29.3268 3.62452C28.843 3.17554 28.2803 2.85881 27.6396 2.67465C26.9986 2.49062 26.2972 2.39844 25.5355 2.39844C24.7915 2.39844 24.1058 2.51521 23.4785 2.7487C22.8509 2.98248 22.3087 3.31694 21.8517 3.7526C21.3947 4.18843 21.0382 4.71591 20.7828 5.33581C20.5274 5.95556 20.3996 6.64738 20.3996 7.41069C20.3996 8.17427 20.5274 8.86598 20.7828 9.4856C21.0382 10.1055 21.3947 10.6332 21.8517 11.0688C22.3087 11.5046 22.8509 11.8392 23.4785 12.0727C24.1058 12.3062 24.7915 12.4231 25.5355 12.4231C26.2347 12.4231 26.9203 12.3511 27.5925 12.2075C28.2647 12.0638 28.9101 11.83 29.5286 11.5068V8.8255H27.5119V10.0113V10.0112Z" fill="white"/>
<path d="M37.2997 8.42116C37.2997 8.71767 37.2526 8.99176 37.1584 9.24315C37.0645 9.49462 36.932 9.71251 36.762 9.89655C36.5916 10.0808 36.39 10.2246 36.1569 10.3277C35.9237 10.4312 35.6682 10.4827 35.3905 10.4827C35.1126 10.4827 34.8549 10.4312 34.6174 10.3277C34.3798 10.2246 34.1758 10.0808 34.0057 9.89655C33.8354 9.71251 33.7032 9.49466 33.6091 9.24315C33.515 8.9918 33.4679 8.71767 33.4679 8.42116V2.64087H31.3705V8.50203C31.3705 9.06802 31.4556 9.58892 31.6259 10.065C31.7962 10.5413 32.0494 10.9543 32.3855 11.3045C32.7216 11.6549 33.1404 11.929 33.6426 12.1265C34.1444 12.3239 34.7271 12.4229 35.3905 12.4229C36.0446 12.4229 36.6229 12.3239 37.1248 12.1265C37.6267 11.929 38.0457 11.6549 38.382 11.3045C38.7181 10.9542 38.9711 10.5413 39.1416 10.065C39.3117 9.58892 39.397 9.06802 39.397 8.50203V2.64087H37.2996V8.42116H37.2997Z" fill="white"/>
<path d="M47.8807 2.64087H43.8755V4.58112H47.8807V2.64087Z" fill="white"/>
<path d="M43.5111 8.29986H47.6386V6.35956H43.5111V6.35776H43.5048V2.64087H41.4137V12.1802H48.1227V10.2401H43.5111V8.29986Z" fill="white"/>
<path d="M56.1423 8.69741C55.9676 9.07026 55.7276 9.37107 55.423 9.60011C55.1182 9.82912 54.7575 9.99306 54.3407 10.0918C53.9239 10.1908 53.4735 10.2402 52.9896 10.2402H51.9006V4.58104H53.1374C53.5765 4.58104 53.9957 4.63732 54.3945 4.74944C54.7932 4.86203 55.1409 5.03043 55.4366 5.25482C55.7324 5.47937 55.9676 5.76469 56.1423 6.11046C56.3171 6.45623 56.4046 6.86274 56.4046 7.32973C56.4046 7.86865 56.3171 8.32469 56.1423 8.69741ZM56.9155 3.7254C56.4046 3.34389 55.8062 3.06767 55.1206 2.89687C54.4348 2.72635 53.711 2.64087 52.9492 2.64087H49.8032V12.1802H53.2315C53.9394 12.1802 54.6164 12.0772 55.2618 11.8705C55.9071 11.6638 56.4763 11.3606 56.9693 10.961C57.4622 10.5615 57.8543 10.0674 58.1456 9.47889C58.4369 8.89068 58.5827 8.21017 58.5827 7.43763C58.5827 6.56634 58.4325 5.82542 58.1321 5.21446C57.8319 4.60363 57.4265 4.10747 56.9155 3.7254Z" fill="white"/>
<path d="M66.6493 12.1803H69.0156L68.2982 10.5276H65.9787L66.6493 12.1803Z" fill="white"/>
<path d="M62.7906 8.3808L63.9469 5.41651L65.1166 8.3808H62.7906ZM64.8745 2.64087H63.1402L59.026 12.1804H61.3386L62.1318 10.1592H64.4073V10.156H68.1367L64.8745 2.64087H64.8745Z" fill="white"/>
</svg>
