<svg width="291" height="77" viewBox="0 0 291 77" fill="none" xmlns="http://www.w3.org/2000/svg">
<g clip-path="url(#clip0_29_315)">
<path d="M77.2241 44.4628C76.1408 38.3329 71.5011 33.6272 66.1531 30.8509C59.1954 27.2352 50.8136 26.7605 44.9051 21.1395C41.2918 17.7023 39.6025 10.885 43.1893 6.83634C45.3141 4.44362 48.9994 3.03837 52.143 3.79797C55.1314 4.50439 57.2714 7.04143 58.0175 9.95827C58.3307 11.1589 58.3489 12.4178 58.0705 13.6271C57.4418 16.2857 56.279 18.0707 55.495 19.5026C54.7602 20.8394 56.9191 24.1779 57.9304 22.3321C59.2885 19.9681 60.3218 17.4308 61.0021 14.7893C62.0777 9.92029 61.4376 4.69429 57.0971 1.65591C51.3439 -2.36993 43.3446 1.62933 40.076 7.02624C38.6048 9.53986 37.9404 12.4464 38.1728 15.3516C38.4052 18.2568 39.5232 21.02 41.3751 23.2663C46.9655 29.852 55.976 30.2622 63.2519 33.8779C68.9067 36.696 74.1941 41.789 74.3456 48.519C74.4857 54.9338 69.8005 60.1256 63.6079 61.1929C61.6271 61.5118 59.6082 61.5118 57.6274 61.1929C57.6129 61.1906 57.5992 61.1851 57.5873 61.1767C57.5753 61.1683 57.5655 61.1572 57.5585 61.1443C57.5515 61.1314 57.5476 61.1171 57.5471 61.1025C57.5466 61.0878 57.5494 61.0733 57.5554 61.0599C58.4886 59.0645 58.9919 56.8943 59.0326 54.6907C59.0629 49.5027 55.5064 43.3728 49.7645 43.4563C44.8937 43.5247 40.7918 48.2532 41.3637 53.088C42.0114 58.5799 47.7381 62.4234 52.7869 64.0375C52.8013 64.0423 52.8143 64.0504 52.8249 64.0612C52.8355 64.0721 52.8434 64.0853 52.8478 64.0998C52.8523 64.1143 52.8532 64.1297 52.8505 64.1446C52.8478 64.1596 52.8416 64.1736 52.8324 64.1857C52.5483 64.5655 52.2567 64.9453 51.9574 65.3251C49.3751 68.4557 46.3285 71.17 42.9242 73.3729C42.9101 73.3803 42.8946 73.3841 42.8787 73.3841C42.8629 73.3841 42.8473 73.3803 42.8333 73.3729C39.0509 71.8097 35.3809 69.9862 31.8494 67.9153C24.4145 63.6653 17.2333 58.5191 11.6354 51.9638C5.37078 44.6489 1.80671 35.5414 3.62094 25.8604C5.11323 17.9036 10.6658 12.1269 17.881 8.91383C20.438 7.77154 23.1026 6.88855 25.8348 6.27804C27.7232 5.8539 29.6441 5.5909 31.5767 5.49186C33.0917 5.4197 34.8075 1.83062 32.713 1.92937C30.1056 2.06726 27.5198 2.47841 24.9978 3.15611C22.1535 3.90762 19.3932 4.9486 16.7599 6.26285C6.91231 11.2002 0.4735 20.3495 0.0341461 31.5041C-0.836987 52.9513 20.4868 67.5279 37.7618 75.4846C39.1745 76.1341 41.1365 77.5773 42.6628 76.7493C45.8557 75.0137 48.8517 72.2298 51.3742 69.6509C52.8736 68.1356 54.2421 66.4953 55.4647 64.7478C55.4746 64.7333 55.4885 64.7221 55.5046 64.7154C55.5207 64.7086 55.5384 64.7067 55.5556 64.7098C61.2824 65.7086 67.3613 64.2844 71.6716 60.2434C75.8606 56.3163 78.2543 50.1901 77.2392 44.4628M55.9116 56.6923C55.816 58.0488 55.4799 59.3773 54.9193 60.6156C51.0977 59.4762 47.6018 57.2354 45.5641 53.9425C44.4922 52.2107 43.6703 49.4989 45.5149 47.9759C47.2192 46.5555 49.8478 46.8365 51.6166 47.9493C54.4345 49.7192 56.0783 53.4146 55.8927 56.6847" fill="black"/>
<path d="M115.573 23.5474C113.91 23.5337 112.262 23.854 110.725 24.4893C109.242 25.1021 107.896 26.006 106.767 27.1479C105.623 28.3174 104.722 29.7024 104.116 31.2231C102.837 34.5211 102.837 38.1796 104.116 41.4776C104.722 42.9983 105.623 44.3834 106.767 45.5528C107.896 46.6951 109.242 47.5991 110.725 48.2114C112.262 48.8465 113.91 49.1668 115.573 49.1533C117.127 49.1945 118.676 48.9657 120.152 48.4773C121.408 48.0106 122.565 47.3096 123.561 46.4112V42.4233C122.978 43.1729 122.283 43.8275 121.5 44.3641C120.677 44.9305 119.773 45.3685 118.819 45.663C117.765 45.9819 116.67 46.1382 115.569 46.1263C113.969 46.136 112.397 45.7051 111.024 44.8806C109.611 44.0425 108.437 42.8535 107.615 41.4282C106.731 39.8796 106.283 38.1192 106.32 36.3352C106.28 34.5459 106.727 32.7795 107.615 31.2269C108.443 29.8156 109.617 28.6391 111.024 27.8087C112.397 26.9847 113.969 26.5538 115.569 26.563C116.67 26.5511 117.765 26.7074 118.819 27.0263C119.773 27.3211 120.677 27.759 121.5 28.3252C122.283 28.8621 122.978 29.5167 123.561 30.266V26.2857C122.565 25.3873 121.408 24.6863 120.152 24.2196C118.676 23.7326 117.127 23.5052 115.573 23.5474Z" fill="black"/>
<path d="M143.499 37.9455C144.729 37.3771 145.778 36.4779 146.529 35.3477C147.296 34.1689 147.692 32.7861 147.665 31.3788C147.697 29.9649 147.3 28.5746 146.529 27.3909C145.773 26.2681 144.725 25.3747 143.499 24.8083C142.147 24.185 140.672 23.8748 139.185 23.9006H132.439V48.8229H135.469V38.857H138.499L145.415 48.8267H149.142L141.73 38.5722C142.345 38.4285 142.943 38.2197 143.514 37.9493M135.458 26.5858H139.185C140.155 26.5666 141.119 26.7611 142.006 27.1555C142.788 27.5024 143.454 28.0664 143.927 28.781C144.38 29.5719 144.619 30.4683 144.619 31.3807C144.619 32.2931 144.38 33.1895 143.927 33.9804C143.457 34.6989 142.792 35.2671 142.01 35.6173C141.122 36.0121 140.159 36.2066 139.188 36.187H135.461L135.458 26.5858Z" fill="black"/>
<path d="M157.539 23.9006H155.872V48.8229H157.539H158.891H170.072V45.9744H158.891V36.7187H169.363V33.8703H158.891V26.7491H170.072V23.9006H158.891H157.539Z" fill="black"/>
<path d="M191.82 37.0226C191.207 36.4515 190.521 35.9661 189.778 35.5794C189.101 35.2246 188.402 34.915 187.684 34.6527C186.499 34.265 185.356 33.7559 184.275 33.1335C183.558 32.7372 182.944 32.1763 182.484 31.4965C182.132 30.9263 181.947 30.2682 181.95 29.5976C181.956 28.7732 182.289 27.9852 182.874 27.4061C183.49 26.7529 184.472 26.4263 185.82 26.4263C186.678 26.4 187.527 26.5962 188.286 26.996C188.949 27.3658 189.534 27.8611 190.009 28.4544C190.462 29.0169 190.854 29.6253 191.18 30.2698L193.77 28.7734C193.342 27.8575 192.779 27.0113 192.1 26.2629C191.371 25.4543 190.498 24.7896 189.525 24.3032C188.416 23.7716 187.197 23.5125 185.968 23.5474C184.677 23.5235 183.399 23.8101 182.241 24.383C181.199 24.8959 180.315 25.6836 179.685 26.6617C179.062 27.6626 178.744 28.8244 178.772 30.0039C178.739 31.0054 178.965 31.9984 179.427 32.8866C179.85 33.6527 180.423 34.3246 181.112 34.8615C181.78 35.385 182.508 35.8273 183.279 36.1794C184.036 36.5238 184.723 36.8023 185.339 37.015C186.255 37.3403 187.151 37.7208 188.021 38.1544C188.814 38.5326 189.512 39.0856 190.062 39.7723C190.614 40.5448 190.889 41.4818 190.843 42.4309C190.857 42.9592 190.756 43.4844 190.548 43.9697C190.339 44.4551 190.027 44.889 189.634 45.2414C188.75 46.0083 187.605 46.4042 186.438 46.3466C185.514 46.3606 184.602 46.1398 183.786 45.7047C182.975 45.2522 182.257 44.6475 181.673 43.9235C181.001 43.0984 180.402 42.2165 179.882 41.2877L177.458 42.917C178.02 44.0351 178.731 45.0713 179.571 45.9972C180.428 46.9513 181.456 47.7358 182.601 48.3102C183.763 48.8951 185.047 49.1945 186.347 49.1837C187.322 49.1874 188.29 49.019 189.206 48.6862C190.102 48.3631 190.932 47.8807 191.657 47.2619C192.378 46.6458 192.96 45.8817 193.361 45.0211C193.785 44.0949 193.998 43.0853 193.983 42.0663C194.009 41.0543 193.803 40.0496 193.38 39.1305C192.999 38.3409 192.475 37.6289 191.835 37.0302" fill="black"/>
<path d="M209.072 21.0521H206.421C205.001 23.7078 203.956 26.5478 203.315 29.4912C202.013 35.4133 202.013 41.5487 203.315 47.4708C203.96 50.4239 205.005 53.2747 206.421 55.9441H209.072C207.828 53.2415 206.916 50.3975 206.356 47.4746C205.22 41.5356 205.22 35.4341 206.356 29.495C206.912 26.5796 207.824 23.7439 209.072 21.0521Z" fill="black"/>
<path d="M229.384 37.0226C228.772 36.4515 228.085 35.9661 227.343 35.5794C226.666 35.2246 225.966 34.915 225.248 34.6527C224.063 34.265 222.921 33.7559 221.84 33.1335C221.122 32.7372 220.508 32.1762 220.048 31.4965C219.696 30.9263 219.511 30.2682 219.514 29.5976C219.521 28.7751 219.852 27.9887 220.434 27.4099C221.05 26.7567 222.033 26.4301 223.381 26.4301C224.238 26.4038 225.088 26.6 225.847 26.9997C226.51 27.3696 227.095 27.8649 227.57 28.4582C228.022 29.0207 228.415 29.6291 228.74 30.2736L231.331 28.7772C230.903 27.8613 230.34 27.0151 229.661 26.2667C228.932 25.4581 228.058 24.7934 227.085 24.307C225.984 23.7776 224.773 23.5173 223.551 23.5474C222.26 23.5235 220.983 23.81 219.825 24.3829C218.782 24.8959 217.898 25.6836 217.268 26.6617C216.638 27.6606 216.314 28.8225 216.336 30.0039C216.303 31.0054 216.529 31.9984 216.991 32.8866C217.414 33.6527 217.987 34.3246 218.677 34.8615C219.345 35.385 220.072 35.8273 220.843 36.1794C221.601 36.5238 222.288 36.8023 222.904 37.015C223.82 37.3403 224.715 37.7208 225.585 38.1544C226.379 38.5327 227.077 39.0857 227.627 39.7723C228.179 40.5448 228.454 41.4818 228.407 42.4309C228.421 42.9592 228.321 43.4844 228.112 43.9697C227.903 44.4551 227.592 44.889 227.199 45.2414C226.315 46.0083 225.17 46.4042 224.002 46.3466C223.079 46.3606 222.166 46.1398 221.351 45.7047C220.539 45.2522 219.822 44.6475 219.237 43.9235C218.566 43.0984 217.966 42.2165 217.446 41.2877L215.022 42.917C215.584 44.035 216.295 45.0712 217.135 45.9972C217.993 46.9511 219.02 47.7357 220.165 48.3101C221.327 48.8951 222.611 49.1945 223.911 49.1837C224.886 49.1874 225.854 49.019 226.771 48.6861C227.667 48.3631 228.497 47.8807 229.221 47.2619C229.943 46.6458 230.524 45.8817 230.926 45.0211C231.35 44.0949 231.562 43.0853 231.547 42.0663C231.574 41.0543 231.368 40.0496 230.945 39.1305C230.563 38.3409 230.039 37.6289 229.399 37.0302" fill="black"/>
<path d="M241.187 23.9006H239.52V48.8229H241.187H242.539H253.719V45.9744H242.539V36.7187H253.011V33.8703H242.539V26.7491H253.719V23.9006H242.539H241.187Z" fill="black"/>
<path d="M273.657 37.9455C274.887 37.3771 275.936 36.4779 276.687 35.3477C277.454 34.1689 277.85 32.7861 277.823 31.3788C277.855 29.9649 277.459 28.5746 276.687 27.3909C275.932 26.2681 274.884 25.3747 273.657 24.8083C272.305 24.185 270.83 23.8748 269.343 23.9006H262.597V48.8229H265.627V38.857H268.657L275.573 48.8267H279.3L271.888 38.5722C272.503 38.4285 273.101 38.2197 273.672 37.9493M265.616 26.5858H269.343C270.314 26.5666 271.277 26.7611 272.164 27.1555C272.946 27.5061 273.611 28.0742 274.081 28.7924C274.535 29.5832 274.774 30.4796 274.774 31.3921C274.774 32.3046 274.535 33.201 274.081 33.9918C273.612 34.7105 272.947 35.2787 272.164 35.6287C271.277 36.0235 270.314 36.218 269.343 36.1984H265.616V26.5858Z" fill="black"/>
<path d="M290.023 29.4912C289.381 26.5479 288.336 23.7079 286.917 21.0521H284.266C285.528 23.7368 286.441 26.5731 286.981 29.4912C288.093 35.4325 288.093 41.5295 286.981 47.4708C286.437 50.399 285.525 53.2462 284.266 55.9441H286.917C288.332 53.2746 289.377 50.4238 290.023 47.4708C291.324 41.5486 291.324 35.4134 290.023 29.4912Z" fill="black"/>
</g>
<defs>
<clipPath id="clip0_29_315">
<rect width="291" height="77" fill="white"/>
</clipPath>
</defs>
</svg>
