<svg width="78" height="77" viewBox="0 0 78 77" fill="none" xmlns="http://www.w3.org/2000/svg">
<path d="M77.2158 44.4469C76.1325 38.317 71.4928 33.6113 66.1448 30.835C59.1871 27.2193 50.8053 26.7446 44.8968 21.1236C41.2834 17.6864 39.5942 10.8691 43.181 6.82044C45.3058 4.42772 48.9911 3.02247 52.1347 3.78207C55.1231 4.48849 57.2631 7.02553 58.0092 9.94237C58.3224 11.143 58.3406 12.4019 58.0622 13.6112C57.4335 16.2698 56.2707 18.0548 55.4867 19.4867C54.7519 20.8235 56.9108 24.162 57.9221 22.3162C59.2802 19.9522 60.3134 17.4149 60.9938 14.7734C62.0694 9.90439 61.4293 4.67839 57.0888 1.64001C51.3356 -2.38583 43.3363 1.61343 40.0677 7.01034C38.5965 9.52396 37.9321 12.4305 38.1645 15.3357C38.3969 18.2409 39.5149 21.0041 41.3668 23.2505C46.9572 29.8361 55.9677 30.2463 63.2436 33.862C68.8984 36.6801 74.1858 41.7731 74.3373 48.5031C74.4774 54.9179 69.7922 60.1097 63.5996 61.177C61.6188 61.4959 59.5999 61.4959 57.6191 61.177C57.6046 61.1747 57.5909 61.1692 57.579 61.1608C57.567 61.1524 57.5572 61.1413 57.5502 61.1284C57.5432 61.1155 57.5393 61.1012 57.5388 61.0866C57.5383 61.0719 57.5411 61.0574 57.5471 61.044C58.4803 59.0486 58.9836 56.8784 59.0243 54.6748C59.0546 49.4868 55.4981 43.3569 49.7562 43.4404C44.8854 43.5088 40.7835 48.2373 41.3554 53.0721C42.0031 58.564 47.7298 62.4075 52.7786 64.0216C52.793 64.0264 52.806 64.0345 52.8166 64.0453C52.8272 64.0562 52.8351 64.0694 52.8395 64.0839C52.844 64.0984 52.8449 64.1138 52.8422 64.1287C52.8395 64.1437 52.8333 64.1577 52.8241 64.1698C52.54 64.5496 52.2484 64.9294 51.9491 65.3091C49.3668 68.4398 46.3202 71.1541 42.9159 73.357C42.9018 73.3644 42.8862 73.3682 42.8704 73.3682C42.8546 73.3682 42.839 73.3644 42.825 73.357C39.0426 71.7938 35.3726 69.9702 31.8411 67.8994C24.4062 63.6494 17.225 58.5032 11.6271 51.9479C5.36248 44.633 1.79841 35.5255 3.61264 25.8445C5.10493 17.8877 10.6575 12.111 17.8727 8.89793C20.4297 7.75564 23.0943 6.87265 25.8265 6.26214C27.7149 5.838 29.6358 5.575 31.5684 5.47596C33.0834 5.4038 34.7992 1.81472 32.7047 1.91347C30.0973 2.05136 27.5115 2.46251 24.9895 3.14021C22.1452 3.89172 19.3849 4.9327 16.7516 6.24695C6.90401 11.1843 0.465199 20.3336 0.0258453 31.4882C-0.845287 52.9354 20.4785 67.512 37.7535 75.4687C39.1662 76.1182 41.1282 77.5614 42.6545 76.7334C45.8474 74.9978 48.8434 72.2139 51.3659 69.635C52.8653 68.1197 54.2338 66.4794 55.4564 64.7319C55.4663 64.7174 55.4802 64.7062 55.4963 64.6995C55.5124 64.6927 55.5301 64.6908 55.5473 64.6939C61.2741 65.6927 67.353 64.2685 71.6633 60.2275C75.8523 56.3004 78.246 50.1742 77.2309 44.4469M55.9033 56.6764C55.8077 58.0329 55.4716 59.3614 54.911 60.5997C51.0894 59.4603 47.5935 57.2195 45.5558 53.9266C44.4839 52.1948 43.662 49.483 45.5065 47.96C47.2109 46.5396 49.8395 46.8206 51.6083 47.9334C54.4262 49.7033 56.07 53.3987 55.8844 56.6688" fill="#FCFCFC"/>
</svg>
