<svg xmlns="http://www.w3.org/2000/svg" viewBox="0 0 768.31 202.74"><defs><style>.cls-1{fill:#8bd6b2;}</style></defs><title>verde1</title><g id="Layer_2" data-name="Layer 2"><g id="Layer_1-2" data-name="Layer 1"><path class="cls-1" d="M203.89,117.07c-2.86-16.14-15.11-28.53-29.23-35.84-18.37-9.52-40.5-10.77-56.1-25.57-9.54-9.05-14-27-4.53-37.66,5.61-6.3,15.34-10,23.64-8,7.89,1.86,13.54,8.54,15.51,16.22a20.21,20.21,0,0,1,.14,9.66c-1.66,7-4.73,11.7-6.8,15.47-1.94,3.52,3.76,12.31,6.43,7.45a79.72,79.72,0,0,0,8.11-19.86c2.84-12.82,1.15-26.58-10.31-34.58-15.19-10.6-36.31-.07-44.94,14.14a37.4,37.4,0,0,0,3.43,42.76C124,78.6,147.79,79.68,167,89.2c14.93,7.42,28.89,20.83,29.29,38.55.37,16.89-12,30.56-28.35,33.37a49.79,49.79,0,0,1-15.79,0,.25.25,0,0,1-.19-.35A41.3,41.3,0,0,0,155.86,144c.08-13.66-9.31-29.8-24.47-29.58-12.86.18-23.69,12.63-22.18,25.36,1.71,14.46,16.83,24.58,30.16,28.83a.25.25,0,0,1,.12.39c-.75,1-1.52,2-2.31,3a104.45,104.45,0,0,1-23.85,21.19.26.26,0,0,1-.24,0,234.34,234.34,0,0,1-29-14.37c-19.63-11.19-38.59-24.74-53.37-42C14.18,117.56,4.77,93.58,9.56,68.09c3.94-20.95,18.6-36.16,37.65-44.62a110.85,110.85,0,0,1,21-6.94,90.49,90.49,0,0,1,15.16-2.07c4-.19,8.53-9.64,3-9.38A98.8,98.8,0,0,0,66,8.31a114,114,0,0,0-21.75,8.18c-26,13-43,37.09-44.16,66.46-2.3,56.47,54,94.85,99.61,115.8,3.73,1.71,8.91,5.51,12.94,3.33,8.43-4.57,16.34-11.9,23-18.69a99.27,99.27,0,0,0,10.8-12.91.24.24,0,0,1,.24-.1c15.12,2.63,31.17-1.12,42.55-11.76,11.06-10.34,17.38-26.47,14.7-41.55m-56.31,32.2A30.13,30.13,0,0,1,145,159.6c-10.09-3-19.32-8.9-24.7-17.57-2.83-4.56-5-11.7-.13-15.71,4.5-3.74,11.44-3,16.11-.07,7.44,4.66,11.78,14.39,11.29,23"/><path class="cls-1" d="M305.14,62a32.88,32.88,0,0,0-12.8,2.48,31.77,31.77,0,0,0-10.45,7,32.65,32.65,0,0,0-7,10.73,37.26,37.26,0,0,0,0,27,32.64,32.64,0,0,0,7,10.73,31.71,31.71,0,0,0,10.45,7,32.9,32.9,0,0,0,12.8,2.48,35.58,35.58,0,0,0,12.09-1.78,28,28,0,0,0,9-5.44v-10.5a24.27,24.27,0,0,1-5.44,5.11,26.06,26.06,0,0,1-7.08,3.42,28.62,28.62,0,0,1-8.58,1.22,23.08,23.08,0,0,1-12-3.28,25.23,25.23,0,0,1-9-9.09,25.92,25.92,0,0,1-3.42-13.41,25.86,25.86,0,0,1,3.42-13.45,25.37,25.37,0,0,1,9-9,23.11,23.11,0,0,1,12-3.28,28.62,28.62,0,0,1,8.58,1.22,26.11,26.11,0,0,1,7.08,3.42,24.34,24.34,0,0,1,5.44,5.11V69.21a28,28,0,0,0-9-5.44A35.6,35.6,0,0,0,305.14,62"/><path class="cls-1" d="M378.87,99.91a19.34,19.34,0,0,0,8-6.84,18.48,18.48,0,0,0,3-10.45,18.43,18.43,0,0,0-3-10.5,19.47,19.47,0,0,0-8-6.8,26.18,26.18,0,0,0-11.39-2.39H349.67v65.62h8V102.31h8l18.26,26.25h9.84l-19.57-27a23.53,23.53,0,0,0,4.71-1.64M357.64,70h9.84a17.54,17.54,0,0,1,7.45,1.5A11.82,11.82,0,0,1,380,75.78a13.73,13.73,0,0,1,0,13.69,11.8,11.8,0,0,1-5.06,4.31,17.51,17.51,0,0,1-7.45,1.5h-9.84Z"/><polygon class="cls-1" points="415.94 62.93 411.54 62.93 411.54 128.55 415.94 128.55 419.51 128.55 449.03 128.55 449.03 121.05 419.51 121.05 419.51 96.68 447.16 96.68 447.16 89.18 419.51 89.18 419.51 70.43 449.03 70.43 449.03 62.93 419.51 62.93 415.94 62.93"/><path class="cls-1" d="M506.45,97.48a24.52,24.52,0,0,0-5.39-3.8,45.87,45.87,0,0,0-5.53-2.44,47.91,47.91,0,0,1-9-4,13.71,13.71,0,0,1-4.73-4.31,9.42,9.42,0,0,1-1.41-5,8.2,8.2,0,0,1,2.44-5.77q2.44-2.58,7.78-2.58a13.14,13.14,0,0,1,6.51,1.5,15.49,15.49,0,0,1,4.55,3.84,27.23,27.23,0,0,1,3.09,4.78l6.84-3.94a26.63,26.63,0,0,0-4.41-6.61,23,23,0,0,0-6.8-5.16A20.43,20.43,0,0,0,491,62a21.35,21.35,0,0,0-9.84,2.2,16.9,16.9,0,0,0-6.75,6A15.92,15.92,0,0,0,472,79a15.31,15.31,0,0,0,1.73,7.59,17,17,0,0,0,4.45,5.2,28.38,28.38,0,0,0,5.72,3.47q3,1.36,5.44,2.2a63.73,63.73,0,0,1,7.08,3,15.39,15.39,0,0,1,5.39,4.26,11.08,11.08,0,0,1,2.06,7,9.58,9.58,0,0,1-3.19,7.4,12,12,0,0,1-8.44,2.91,14.44,14.44,0,0,1-7-1.69,19.14,19.14,0,0,1-5.58-4.69,48.55,48.55,0,0,1-4.73-6.94L468.53,113a36.37,36.37,0,0,0,5.58,8.11,27.05,27.05,0,0,0,8,6.09,21.64,21.64,0,0,0,9.89,2.3,21.93,21.93,0,0,0,7.55-1.31,20.88,20.88,0,0,0,6.47-3.75,17.49,17.49,0,0,0,4.5-5.9,18,18,0,0,0,1.64-7.78,17.34,17.34,0,0,0-1.59-7.73,18.76,18.76,0,0,0-4.08-5.53"/><path class="cls-1" d="M552,55.43h-7a85.85,85.85,0,0,0-8.2,22.22,109.95,109.95,0,0,0,0,47.34,87.35,87.35,0,0,0,8.2,22.31h7A96.85,96.85,0,0,1,544.83,125a125.62,125.62,0,0,1,0-47.34A95.14,95.14,0,0,1,552,55.43"/><path class="cls-1" d="M605.63,97.48a24.52,24.52,0,0,0-5.39-3.8,45.87,45.87,0,0,0-5.53-2.44,47.91,47.91,0,0,1-9-4,13.71,13.71,0,0,1-4.73-4.31,9.42,9.42,0,0,1-1.41-5A8.2,8.2,0,0,1,582,72.17q2.44-2.58,7.78-2.58a13.14,13.14,0,0,1,6.51,1.5,15.49,15.49,0,0,1,4.55,3.84,27.23,27.23,0,0,1,3.09,4.78l6.84-3.94a26.63,26.63,0,0,0-4.41-6.61,23,23,0,0,0-6.8-5.16,20.43,20.43,0,0,0-9.33-2,21.35,21.35,0,0,0-9.84,2.2,16.9,16.9,0,0,0-6.75,6A15.92,15.92,0,0,0,571.18,79a15.31,15.31,0,0,0,1.73,7.59,17,17,0,0,0,4.45,5.2,28.38,28.38,0,0,0,5.72,3.47q3,1.36,5.44,2.2a63.73,63.73,0,0,1,7.08,3,15.4,15.4,0,0,1,5.39,4.26,11.08,11.08,0,0,1,2.06,7,9.58,9.58,0,0,1-3.19,7.4,12,12,0,0,1-8.44,2.91,14.44,14.44,0,0,1-7-1.69,19.14,19.14,0,0,1-5.58-4.69,48.55,48.55,0,0,1-4.73-6.94L567.71,113a36.39,36.39,0,0,0,5.58,8.11,27.07,27.07,0,0,0,8,6.09,21.64,21.64,0,0,0,9.89,2.3,21.93,21.93,0,0,0,7.55-1.31,20.88,20.88,0,0,0,6.47-3.75,17.49,17.49,0,0,0,4.5-5.9,18,18,0,0,0,1.64-7.78,17.34,17.34,0,0,0-1.59-7.73,18.76,18.76,0,0,0-4.08-5.53"/><polygon class="cls-1" points="636.79 62.93 632.39 62.93 632.39 128.55 636.79 128.55 640.36 128.55 669.88 128.55 669.88 121.05 640.36 121.05 640.36 96.68 668.01 96.68 668.01 89.18 640.36 89.18 640.36 70.43 669.88 70.43 669.88 62.93 640.36 62.93 636.79 62.93"/><path class="cls-1" d="M722.52,99.91a19.34,19.34,0,0,0,8-6.84,18.48,18.48,0,0,0,3-10.45,18.43,18.43,0,0,0-3-10.5,19.47,19.47,0,0,0-8-6.8,26.18,26.18,0,0,0-11.39-2.39H693.32v65.62h8V102.31h8l18.26,26.25h9.84l-19.57-27a23.53,23.53,0,0,0,4.71-1.64M701.29,70h9.84a17.54,17.54,0,0,1,7.45,1.5,11.82,11.82,0,0,1,5.06,4.31,13.72,13.72,0,0,1,0,13.69,11.79,11.79,0,0,1-5.06,4.31,17.51,17.51,0,0,1-7.45,1.5h-9.84Z"/><path class="cls-1" d="M765.73,77.65a85.94,85.94,0,0,0-8.2-22.22h-7a91.12,91.12,0,0,1,7.17,22.22,128.31,128.31,0,0,1,0,47.34,92.7,92.7,0,0,1-7.17,22.31h7a87.43,87.43,0,0,0,8.2-22.31,110,110,0,0,0,0-47.34"/></g></g></svg>